<svg xmlns="http://www.w3.org/2000/svg" xmlns:xlink="http://www.w3.org/1999/xlink" viewBox="0 0 519 589"><defs><style>.a,.h,.k{fill:none;}.b{clip-path:url(#a);}.c{fill:#93278f;}.d{fill:#ffe4b4;}.e{fill:#ffefb4;}.f{fill:#f15a24;}.g{fill:blue;}.h,.i,.k{stroke:#000;stroke-miterlimit:10;}.h{stroke-width:9px;}.i{fill:#f0f;}.i,.k{stroke-width:6px;}.j{opacity:0.29;}</style><clipPath id="a" transform="translate(-620 -289)"><circle class="a" cx="879.5" cy="548.5" r="259.5"/></clipPath></defs><g class="b"><circle class="c" cx="259.5" cy="259.5" r="259.5"/><path d="M928,637.51v5A20.53,20.53,0,0,1,907.47,663h-29.8A24.68,24.68,0,0,1,853,638.33v-3.47C787.23,647,738,696.15,738,755c0,67.93,65.59,123,146.5,123S1031,822.93,1031,755C1031,699.79,987.67,653.07,928,637.51Z" transform="translate(-620 -289)"/><path class="d" d="M233,291h75a0,0,0,0,1,0,0v62.47A20.53,20.53,0,0,1,287.47,374h-29.8A24.67,24.67,0,0,1,233,349.33V291a0,0,0,0,1,0,0Z"/><ellipse class="e" cx="275" cy="238.5" rx="99" ry="94.5"/><path class="f" d="M815,506v42l-29-30s-3-56,36-85H799s12-14,49-7l-14-19s41-2,66,17c0,0,22-29,60-5s57,11,57,11-6,24-35,24c0,0,17,26,19,62l-32,27V510s-45-22-74-33Z" transform="translate(-620 -289)"/><ellipse cx="230.5" cy="249" rx="7.5" ry="14"/><ellipse cx="309.5" cy="251" rx="7.5" ry="14"/><path class="g" d="M784,581.5c-3.72,0-6.75-4.28-8.64-7.87-9-17-10.78-51.34-3.3-62.21,3.3-4.81,7.4-7.24,12.2-7.24a20.51,20.51,0,0,1,10.1,3.08c-3.67,38.93,9,63.07,14.12,71.09A94.23,94.23,0,0,1,784,581.5Z" transform="translate(-620 -289)"/><path d="M784.26,506.68a17.11,17.11,0,0,1,7.47,2c-2.9,34.74,7,57.8,12.88,68.08A93.83,93.83,0,0,1,784,579c-1.87,0-4.27-2.44-6.42-6.53-3.91-7.43-6.78-19.78-7.47-32.22s.85-22.82,4-27.42c2.85-4.14,6.16-6.15,10.14-6.15m0-5c-4.66,0-9.86,1.92-14.26,8.32-11,16-3,74,14,74s28.49-4.27,28.49-4.27S792,554,797,506c0,0-5.76-4.32-12.74-4.32Z" transform="translate(-620 -289)"/><path class="g" d="M1006.74,580a94.84,94.84,0,0,1-24.49-3.15c5.15-8,17.79-32.16,14.12-71.09a20.73,20.73,0,0,1,10.11-3.08c4.79,0,8.9,2.43,12.2,7.23,7.47,10.88,5.65,45.19-3.31,62.22C1013.48,575.67,1010.45,580,1006.74,580Z" transform="translate(-620 -289)"/><path d="M1006.48,505.13h0c4,0,7.29,2,10.14,6.15,3.16,4.6,4.69,15.1,4,27.41s-3.56,24.79-7.47,32.23c-2.15,4.09-4.55,6.53-6.42,6.53a94.37,94.37,0,0,1-20.61-2.26C992,564.9,1001.91,541.84,999,507.1a17.08,17.08,0,0,1,7.47-2m0-5c-7,0-12.74,4.32-12.74,4.32,5,48-15.49,73.73-15.49,73.73s11.49,4.27,28.49,4.27,25-58,14-74c-4.4-6.4-9.6-8.32-14.26-8.32Z" transform="translate(-620 -289)"/><path class="h" d="M792.5,506.5s-5-66,31-92,126-28,150,11,25,79,25,79" transform="translate(-620 -289)"/><path class="i" d="M793.5,508.5s36,8,95,10,109-14,109-14,2,39-10,50-52,20-71,15-11-12-28-12-13,12-27,12-57,1-66-21Z" transform="translate(-620 -289)"/><polygon class="j" points="185.5 270.5 219.13 226.81 250.79 229.53 207.5 276.5 185.5 270.5"/><polygon class="j" points="220 278 258.9 227.45 290.56 230.18 247.27 277.14 220 278"/><path class="k" d="M808,579s9,18,58,21" transform="translate(-620 -289)"/><circle cx="249.5" cy="310.5" r="7.5"/><path d="M885,601.8a30,30,0,0,1,4-.84c1.3-.2,2.58-.35,3.84-.46a31.81,31.81,0,0,1,3.77-.13c.63,0,1.26,0,1.88,0a16.28,16.28,0,0,0,1.86-.13,19.12,19.12,0,0,0,3.58-.75c.58-.19,1.11-.39,1.69-.64s1.17-.55,1.75-.84c1.16-.57,2.31-1.17,3.41-1.84.56-.33,1.1-.68,1.62-1.06a7.72,7.72,0,0,0,1.42-1.22l.36.18a12.24,12.24,0,0,1-2.66,3.09c-1,.9-2,1.74-3.1,2.55-.54.4-1.09.78-1.64,1.16s-1.21.76-1.84,1.09a22.37,22.37,0,0,1-4,1.41c-1.34.37-2.69.68-4,.93a16,16,0,0,1-4.09.18,21.35,21.35,0,0,1-4-.73A15.3,15.3,0,0,1,885,602.2Z" transform="translate(-620 -289)"/></g></svg>