<svg xmlns="http://www.w3.org/2000/svg" xmlns:xlink="http://www.w3.org/1999/xlink" viewBox="0 0 519 556"><defs><style>.a,.o,.r{fill:none;}.b{clip-path:url(#a);}.c{fill:#93278f;}.d{fill:#ffe4b4;}.e{fill:#ffefb4;}.f{fill:#f15a24;}.g{fill:#e95c00;}.h{fill:#ff7bac;}.i{fill:#ffd9aa;}.j{fill:#ffeac9;}.k{fill:#ed1e79;}.l{fill:#fff;}.m{fill:#f49000;}.n{fill:blue;}.o,.p,.r{stroke:#000;stroke-miterlimit:10;}.o{stroke-width:9px;}.p{fill:#f0f;}.p,.r{stroke-width:6px;}.q{opacity:0.29;}</style><clipPath id="a" transform="translate(-620 -289)"><circle class="a" cx="879.5" cy="548.5" r="259.5"/></clipPath></defs><g class="b"><circle class="c" cx="259.5" cy="259.5" r="259.5"/><path class="d" d="M233,291h75a0,0,0,0,1,0,0v62.47A20.53,20.53,0,0,1,287.47,374h-29.8A24.67,24.67,0,0,1,233,349.33V291a0,0,0,0,1,0,0Z"/><ellipse class="e" cx="275" cy="238.5" rx="99" ry="94.5"/><path class="f" d="M815,506v42l-29-30s-3-56,36-85H799s12-14,49-7l-14-19s41-2,66,17c0,0,22-29,60-5s57,11,57,11-6,24-35,24c0,0,17,26,19,62l-32,27V510s-45-22-74-33Z" transform="translate(-620 -289)"/><path class="g" d="M802.57,541.79s-1.81.28-4.74,1c-18.63,4.47-82.75,26.16-17.34,103.22,75.69,89.18,76.74,82.61,141.92,56.32s83-2.81,67.28-77,61-97.63-21-100.44S802.57,541.79,802.57,541.79Z" transform="translate(-620 -289)"/><path class="h" d="M229.47,367.32h79.65a95.26,95.26,0,0,1,95.26,95.26V556a0,0,0,0,1,0,0H134.21a0,0,0,0,1,0,0V462.58A95.26,95.26,0,0,1,229.47,367.32Z"/><path class="i" d="M235.13,326h69.38a0,0,0,0,1,0,0v37.62a32.78,32.78,0,0,1-32.78,32.78h-3.82a32.78,32.78,0,0,1-32.78-32.78V326A0,0,0,0,1,235.13,326Z"/><ellipse class="j" cx="270.34" cy="226.51" rx="104.6" ry="117.34"/><path class="f" d="M894,434.78S875.1,474.21,826.74,493s-31.53,103.26-11.56,122,31.54,77,12.62,111.71-20,57.26-20,57.26,4.21-92-27.33-108-52.56-69.46-44.15-149.26C745,445,804.46,361.68,900.33,385c0,0,55.72-14.08,93.56,34.73s14.72,136.11,24.18,195.25-45.2,148.32-45.2,148.32,16.82-54.44,1-74.16c0,0,6.3,25.35-5.26,33.8,0,0,5.26-34.74-5.26-57.27s-14.71-46.93-4.2-76,26.28-81.67-2.1-105.14S907.69,462.94,894,434.78Z" transform="translate(-620 -289)"/><polygon class="k" points="185 556 184.67 506.25 196.28 556 185 556"/><polygon class="k" points="353.92 556 354.25 506.25 342.64 556 353.92 556"/><ellipse cx="227.77" cy="245.28" rx="13.67" ry="18.77"/><ellipse cx="304.51" cy="245.28" rx="13.67" ry="18.77"/><ellipse class="l" cx="231.45" cy="241.06" rx="3.68" ry="3.29"/><ellipse class="l" cx="311.58" cy="241.16" rx="3.68" ry="3.29"/><path class="f" d="M908.08,509.26a17.29,17.29,0,0,1,4.24-4.25,23.06,23.06,0,0,1,5.29-2.91,19.82,19.82,0,0,1,5.93-1.35,33.2,33.2,0,0,1,6.07.15A31.33,31.33,0,0,1,941,504.34a42.26,42.26,0,0,1,9.42,6.79l-.25.31a45.24,45.24,0,0,0-10-5.28,30.7,30.7,0,0,0-5.33-1.51,27.56,27.56,0,0,0-5.42-.57,23.32,23.32,0,0,0-5.35.57c-1.76.36-3.48.77-5.22,1.22a72.85,72.85,0,0,0-10.5,3.69Z" transform="translate(-620 -289)"/><path class="f" d="M869,509.89a72.54,72.54,0,0,0-10.51-3.69c-1.73-.45-3.46-.86-5.21-1.22a23.47,23.47,0,0,0-5.36-.57,26.9,26.9,0,0,0-5.42.57,30.6,30.6,0,0,0-5.32,1.51,44.82,44.82,0,0,0-10,5.28l-.25-.31a41.8,41.8,0,0,1,9.42-6.79,31.27,31.27,0,0,1,11.36-3.44,33.2,33.2,0,0,1,6.07-.15,19.82,19.82,0,0,1,5.93,1.35,23.27,23.27,0,0,1,5.29,2.91,17.08,17.08,0,0,1,4.23,4.25Z" transform="translate(-620 -289)"/><path class="m" d="M881.93,569.49a7.56,7.56,0,0,1,3.1-2.88,8.43,8.43,0,0,1,4.25-1,9.05,9.05,0,0,1,4.2,1.13,11.37,11.37,0,0,1,1.76,1.2,13.07,13.07,0,0,1,1.41,1.57c-.69-.21-1.29-.5-1.92-.73l-.93-.32a6,6,0,0,0-.91-.29,8.68,8.68,0,0,1-.91-.25c-.31-.07-.62-.1-.92-.16a5.52,5.52,0,0,0-.91-.11,6.8,6.8,0,0,0-.9-.06A15.43,15.43,0,0,0,881.93,569.49Z" transform="translate(-620 -289)"/><ellipse cx="230.5" cy="249" rx="7.5" ry="14"/><ellipse cx="309.5" cy="251" rx="7.5" ry="14"/><path class="n" d="M784,581.5c-3.72,0-6.75-4.28-8.64-7.87-9-17-10.78-51.34-3.3-62.21,3.3-4.81,7.4-7.24,12.2-7.24a20.51,20.51,0,0,1,10.1,3.08c-3.67,38.93,9,63.07,14.12,71.09A94.23,94.23,0,0,1,784,581.5Z" transform="translate(-620 -289)"/><path d="M784.26,506.68a17.11,17.11,0,0,1,7.47,2c-2.9,34.74,7,57.8,12.88,68.08A93.83,93.83,0,0,1,784,579c-1.87,0-4.27-2.44-6.42-6.53-3.91-7.43-6.78-19.78-7.47-32.22s.85-22.82,4-27.42c2.85-4.14,6.16-6.15,10.14-6.15m0-5c-4.66,0-9.86,1.92-14.26,8.32-11,16-3,74,14,74s28.49-4.27,28.49-4.27S792,554,797,506c0,0-5.76-4.32-12.74-4.32Z" transform="translate(-620 -289)"/><path class="n" d="M1006.74,580a94.77,94.77,0,0,1-24.49-3.15c5.15-8,17.79-32.16,14.12-71.09a20.73,20.73,0,0,1,10.11-3.08c4.79,0,8.9,2.43,12.2,7.23,7.47,10.88,5.65,45.19-3.31,62.22C1013.49,575.67,1010.45,580,1006.74,580Z" transform="translate(-620 -289)"/><path d="M1006.48,505.13h0c4,0,7.29,2,10.14,6.15,3.16,4.6,4.69,15.1,4,27.41s-3.56,24.79-7.47,32.23c-2.15,4.09-4.55,6.53-6.42,6.53a94.37,94.37,0,0,1-20.61-2.26C992,564.9,1001.91,541.84,999,507.1a17.08,17.08,0,0,1,7.47-2m0-5c-7,0-12.74,4.32-12.74,4.32,5,48-15.49,73.73-15.49,73.73s11.49,4.27,28.49,4.27,25-58,14-74c-4.4-6.4-9.6-8.32-14.26-8.32Z" transform="translate(-620 -289)"/><path class="o" d="M792.5,506.5s-5-66,31-92,126-28,150,11,25,79,25,79" transform="translate(-620 -289)"/><path class="p" d="M793.5,508.5s36,8,95,10,109-14,109-14,2,39-10,50-52,20-71,15-11-12-28-12-13,12-27,12-57,1-66-21Z" transform="translate(-620 -289)"/><polygon class="q" points="185.5 270.5 219.13 226.81 250.79 229.53 207.5 276.5 185.5 270.5"/><polygon class="q" points="220 278 258.9 227.45 290.56 230.18 247.27 277.14 220 278"/><path class="r" d="M808,579s9,18,58,21" transform="translate(-620 -289)"/><circle cx="249.5" cy="310.5" r="7.5"/><path d="M885,601.8a30,30,0,0,1,4-.84c1.3-.2,2.58-.35,3.84-.46a31.81,31.81,0,0,1,3.77-.13c.63,0,1.26,0,1.88,0a16.28,16.28,0,0,0,1.86-.13,19.12,19.12,0,0,0,3.58-.75c.58-.19,1.11-.39,1.69-.64s1.17-.55,1.75-.84c1.16-.57,2.31-1.17,3.41-1.84.56-.33,1.1-.68,1.62-1.06a7.72,7.72,0,0,0,1.42-1.22l.36.18a12.24,12.24,0,0,1-2.66,3.09c-1,.9-2,1.74-3.1,2.55-.54.4-1.09.78-1.64,1.16s-1.21.76-1.84,1.09a22.37,22.37,0,0,1-4,1.41c-1.34.37-2.69.68-4,.93a16,16,0,0,1-4.09.18,21.35,21.35,0,0,1-4-.73A15.3,15.3,0,0,1,885,602.2Z" transform="translate(-620 -289)"/></g></svg>