<svg xmlns="http://www.w3.org/2000/svg" xmlns:xlink="http://www.w3.org/1999/xlink" viewBox="0 0 415 450"><defs><style>.a,.g{fill:none;}.b{clip-path:url(#a);}.c{fill:#93278f;}.d{fill:#ffd2aa;}.e{fill:#ffe7c9;}.f{fill:#1a1a1a;}.g,.h{stroke:#000;}.g,.h,.i{stroke-miterlimit:10;stroke-width:4px;}.h{opacity:0.57;}.i{fill:#fff;stroke:#29abe2;opacity:0.22;}.j{fill:#c1272d;}.k{fill:#e2e2e2;}.l{fill:#cecece;}</style><clipPath id="a" transform="translate(-718 -304)"><circle class="a" cx="925.5" cy="511.5" r="207.5"/></clipPath></defs><g class="b"><circle class="c" cx="207.5" cy="207.5" r="207.5"/><rect class="d" x="179" y="203" width="53" height="79"/><ellipse class="d" cx="991.5" cy="459" rx="18" ry="8.5" transform="translate(-303.61 1082.74) rotate(-82.96)"/><ellipse class="d" cx="856.51" cy="459.15" rx="8.5" ry="18" transform="translate(-767.84 -195.51) rotate(-7.04)"/><path class="e" d="M856.7,407.25l.19,54c.1,27.4,16.12,53,42.53,66.22,7.82,3.92,16.14,6.53,24.43,6.53s16.63-2.64,24.48-6.6C974.93,514,991,488.11,991,460.47V407.25S986,365,924,365,856.7,407.25,856.7,407.25Z" transform="translate(-718 -304)"/><path class="f" d="M1006.65,754H839.35A15.4,15.4,0,0,1,824,738.65V615.31A63.5,63.5,0,0,1,887.31,552H897l26.5,33L950,552h8.69A63.5,63.5,0,0,1,1022,615.31V738.65A15.4,15.4,0,0,1,1006.65,754Z" transform="translate(-718 -304)"/><path class="f" d="M857,398s-2,15-2,21,2,25.32,2,25.32l4,5.68s4-20,4-26,7-15.39,7-15.39Z" transform="translate(-718 -304)"/><path class="f" d="M981,382c6,3,12,23.79,12,29.79s-2,25.32-2,25.32l-4,5.68s-4-20-4-26S965,398,965,398,975,379,981,382Z" transform="translate(-718 -304)"/><path d="M862,369c-6.83,7.1-17,21,0,34s57,16,78,13,41-30,46-40a55.85,55.85,0,0,1,12-16s-13,2-16,5c0,0,8-9,14-13,0,0-20,0-25,8,0,0,2-11,6-14H939S887,343,862,369Z" transform="translate(-718 -304)"/><path class="g" d="M862,452c-4.55,5.68-4,27,10,32s40,3,42-3,6-22,2-27S870,442,862,452Z" transform="translate(-718 -304)"/><path class="g" d="M987,451.65c4.55,5.68,4,27-10,32s-40,3-42-3-6-22-2-27S979,441.65,987,451.65Z" transform="translate(-718 -304)"/><line class="g" x1="198" y1="150" x2="215" y2="150"/><polyline class="g" points="267.12 146 275 135 278.67 138.79"/><polyline class="g" points="144.38 147.62 136.5 136.62 132.83 140.41"/><path class="h" d="M862,451.82c-4.54,5.69-4,27,10,32s40,3,42-3,6-22,2-27S870,441.82,862,451.82Z" transform="translate(-718 -304)"/><path class="h" d="M987,451.47c4.54,5.69,4,27-10,32s-40,3-42-3-6-22-2-27S979,441.47,987,451.47Z" transform="translate(-718 -304)"/><line class="i" x1="144" y1="170" x2="169.5" y2="143.5"/><line class="i" x1="151" y1="180" x2="185" y2="146"/><line class="i" x1="166" y1="182" x2="198" y2="150"/><line class="i" x1="215.87" y1="172.87" x2="244.37" y2="143.37"/><line class="i" x1="225.37" y1="180.37" x2="261.37" y2="144.37"/><line class="i" x1="241" y1="180.37" x2="269.87" y2="152.87"/><path class="f" d="M858.72,477S876,506,884,506s21-7,29-9a11.14,11.14,0,0,1,12,4s3-6,13-3,19,11,29,8,20.87-29,20.87-29S982.5,506,976,515c-11,19-22,28-53,28C887,546,858.44,503,858.72,477Z" transform="translate(-718 -304)"/><rect class="e" x="192" y="207" width="29" height="5" rx="2.5"/><path d="M950,552,930,709l52-75-22-13,33-9-.65-50.24S986,552,950,552Z" transform="translate(-718 -304)"/><path d="M897,550.56l20,157-52-75,22-13-33-9,.65-50.24S861,550.56,897,550.56Z" transform="translate(-718 -304)"/><path class="j" d="M897,552l22.47,167h9.19L950,552s-14,15-26,15S897,552,897,552Z" transform="translate(-718 -304)"/><path class="k" d="M863.64,601.94" transform="translate(-718 -304)"/><path class="l" d="M863.64,606.94c6.43,0,6.44-10,0-10s-6.45,10,0,10Z" transform="translate(-718 -304)"/><path class="k" d="M879.64,636.66" transform="translate(-718 -304)"/><path class="l" d="M879.64,641.66c6.43,0,6.44-10,0-10s-6.45,10,0,10Z" transform="translate(-718 -304)"/><path class="k" d="M970.53,636.66" transform="translate(-718 -304)"/><path class="l" d="M970.53,641.66c6.44,0,6.45-10,0-10s-6.44,10,0,10Z" transform="translate(-718 -304)"/><path class="k" d="M983.13,603" transform="translate(-718 -304)"/><path class="l" d="M983.13,608c6.43,0,6.44-10,0-10s-6.45,10,0,10Z" transform="translate(-718 -304)"/></g></svg>